<?xml version="1.0" encoding="utf-8"?>
<!-- Generator: Adobe Illustrator 25.2.3, SVG Export Plug-In . SVG Version: 6.00 Build 0)  -->
<svg version="1.1" id="Lag_1" xmlns="http://www.w3.org/2000/svg" xmlns:xlink="http://www.w3.org/1999/xlink" x="0px" y="0px"
	 viewBox="0 0 960.01 228" style="enable-background:new 0 0 960.01 228;" xml:space="preserve">
<style type="text/css">
	.st0{fill:#801710;}
	.st1{fill:#020203;}
	.st2{fill:#FFFFFF;}
</style>
<path class="st0" d="M25.04,113.09c0-24.42-0.13-48.84,0.05-73.26c0.12-15.79,8.99-21.09,22.71-13.26
	c42.74,24.39,85.38,48.98,127.93,73.71c13.46,7.82,13.47,18.59-0.09,26.48c-41.54,24.15-83.17,48.15-124.97,71.85
	c-17.41,9.87-25.56,4.97-25.62-14.6C24.99,160.38,25.04,136.73,25.04,113.09z"/>
<g>
	<path class="st1" d="M256.59,138.41l-12.67,38.36h-16.28l41.44-121.95h19l41.62,121.95h-16.83l-13.03-38.36H256.59z M296.58,126.1
		L284.63,91c-2.71-7.96-4.52-15.2-6.33-22.26h-0.36c-1.81,7.24-3.8,14.66-6.15,22.07l-11.94,35.28H296.58z"/>
	<path class="st1" d="M346.52,112.89c0-9.05-0.18-16.47-0.72-23.7h14.11l0.9,14.48h0.36c4.34-8.32,14.48-16.47,28.95-16.47
		c12.12,0,30.94,7.24,30.94,37.27v52.29h-15.92v-50.48c0-14.11-5.25-25.87-20.27-25.87c-10.49,0-18.64,7.42-21.35,16.28
		c-0.72,1.99-1.09,4.7-1.09,7.42v52.65h-15.92V112.89z"/>
	<path class="st1" d="M464.67,64.58c0.18,5.43-3.8,9.77-10.13,9.77c-5.61,0-9.59-4.34-9.59-9.77c0-5.61,4.16-9.95,9.95-9.95
		C460.87,54.63,464.67,58.97,464.67,64.58z M446.93,176.77V89.19h15.92v87.57H446.93z"/>
	<path class="st1" d="M592.59,123.21c-0.9-17.01-1.99-37.45-1.81-52.65h-0.54c-4.16,14.29-9.23,29.49-15.38,46.32l-21.53,59.17
		h-11.94l-19.72-58.08c-5.79-17.19-10.68-32.93-14.11-47.41h-0.36c-0.36,15.2-1.27,35.65-2.35,53.92l-3.26,52.29h-15.02l8.5-121.95
		h20.08l20.81,58.99c5.07,15.02,9.23,28.41,12.3,41.07h0.54c3.08-12.3,7.42-25.69,12.85-41.07l21.71-58.99h20.08l7.6,121.95h-15.38
		L592.59,123.21z"/>
	<path class="st1" d="M653.2,138.41l-12.67,38.36h-16.28l41.43-121.95h19l41.62,121.95h-16.83l-13.03-38.36H653.2z M693.19,126.1
		L681.25,91c-2.71-7.96-4.52-15.2-6.33-22.26h-0.36c-1.81,7.24-3.8,14.66-6.15,22.07l-11.94,35.28H693.19z"/>
	<path class="st1" d="M753.44,68.2h-37.09V54.81h90.29V68.2h-37.27v108.56h-15.92V68.2z"/>
	<path class="st1" d="M858.56,56.44c6.88-1.45,17.73-2.53,28.77-2.53c15.74,0,25.87,2.71,33.47,8.87
		c6.33,4.7,10.13,11.94,10.13,21.53c0,11.76-7.78,22.07-20.63,26.78v0.36c11.58,2.9,25.15,12.48,25.15,30.58
		c0,10.49-4.16,18.46-10.31,24.43c-8.5,7.78-22.26,11.4-42.16,11.4c-10.86,0-19.18-0.72-24.43-1.45V56.44z M874.3,106.38h14.29
		c16.65,0,26.42-8.69,26.42-20.45c0-14.29-10.86-19.9-26.78-19.9c-7.24,0-11.4,0.54-13.93,1.09V106.38z M874.3,164.82
		c3.08,0.54,7.6,0.72,13.21,0.72c16.29,0,31.3-5.97,31.3-23.7c0-16.65-14.29-23.52-31.48-23.52H874.3V164.82z"/>
</g>
<rect x="19" y="110" transform="matrix(-1 -1.224647e-16 1.224647e-16 -1 38 220)" class="st2" width="0" height="0"/>
</svg>
